<?xml version="1.0" encoding="iso-8859-1"?>
<!-- Uploaded to: SVG Repo, www.svgrepo.com, Generator: SVG Repo Mixer Tools -->
<svg height="800px" width="800px" version="1.1" id="Layer_1" xmlns="http://www.w3.org/2000/svg" xmlns:xlink="http://www.w3.org/1999/xlink" 
	 viewBox="0 0 297 297" xml:space="preserve">
<g id="XMLID_16_">
	<g>
		<path d="M296.027,270.358c1.453,2.974,1.27,6.506-0.491,9.316c-1.752,2.81-4.841,4.523-8.161,4.523H164.709
			c-0.857,4.485-4.793,7.815-9.451,7.815H23.583c-5.004,0-9.172-3.84-9.585-8.825c0,0-14.503-188.697-13.984-190.005
			C0.669,44.436,40.521,4.988,89.421,4.988s88.752,39.449,89.406,88.194c0.52,1.309-5.899,91.87-5.899,91.87
			c1.675-0.058,3.58-0.067,5.697-0.01v-15.379c0-19.161,14.263-35.05,32.721-37.639V36.381c0-13.531,11.01-24.541,24.541-24.541
			s24.541,11.01,24.541,24.541v95.643c18.468,2.589,32.721,18.478,32.721,37.639v41.393c0,12.627-4.148,24.657-11.52,34.434
			C286.663,252.843,291.504,261.091,296.027,270.358z M273.902,211.056v-41.393c0-8.508-5.697-15.697-13.474-17.997v6.939
			c0,13.531-11.01,24.541-24.541,24.541s-24.541-11.01-24.541-24.541v-6.939c-7.776,2.3-13.474,9.489-13.474,17.997v17.564
			c4.831,0.953,10.009,2.281,15.437,4.129c16.149,5.505,36.667,16.447,55.828,38.101
			C272.218,223.913,273.902,217.61,273.902,211.056z M166.345,264.95h104.93c-16.399-27.553-37.62-46.041-63.249-55.049
			c-16.621-5.842-30.623-5.88-36.696-5.515L166.345,264.95z M241.18,158.605V36.381c0-2.916-2.367-5.293-5.293-5.293
			c-2.916,0-5.293,2.377-5.293,5.293v122.224c0,2.916,2.377,5.293,5.293,5.293C238.813,163.898,241.18,161.521,241.18,158.605z
			 M158.078,129.204l1.521-22.876H19.243l1.53,22.876H158.078z M19.628,87.08h139.586c-3.676-35.262-33.568-62.844-69.793-62.844
			S23.304,51.818,19.628,87.08z M146.394,272.764l10.23-124.312H22.217l10.23,124.312H146.394z"/>
		<path style="fill:#EFB362;" d="M273.902,169.663v41.393c0,6.554-1.684,12.858-4.764,18.401
			c-19.161-21.654-39.68-32.596-55.828-38.101c-5.428-1.848-10.606-3.176-15.437-4.129v-17.564c0-8.508,5.697-15.697,13.474-17.997
			v6.939c0,13.531,11.01,24.541,24.541,24.541s24.541-11.01,24.541-24.541v-6.939C268.204,153.967,273.902,161.156,273.902,169.663z
			"/>
		<path style="fill:#F0D3A7;" d="M271.274,264.95h-104.93l4.985-60.563c6.073-0.366,20.076-0.327,36.696,5.515
			C233.655,218.909,254.875,237.396,271.274,264.95z"/>
		<path style="fill:#EFB362;" d="M241.18,36.381v122.224c0,2.916-2.367,5.293-5.293,5.293c-2.916,0-5.293-2.377-5.293-5.293V36.381
			c0-2.916,2.377-5.293,5.293-5.293C238.813,31.088,241.18,33.465,241.18,36.381z"/>
		<polygon style="fill:#FF5705;" points="159.598,106.328 158.078,129.204 20.773,129.204 19.243,106.328 		"/>
		<polygon style="fill:#EFB362;" points="156.625,148.452 146.394,272.764 32.447,272.764 22.217,148.452 		"/>
	</g>
</g>
</svg>